<svg width="20" height="20" viewBox="0 0 20 20" fill="none" xmlns="http://www.w3.org/2000/svg">
<path d="M3.66356 3.79466L3.72407 3.72456C3.94597 3.50267 4.29318 3.4825 4.53786 3.66405L4.60796 3.72456L9.99935 9.11567L15.3908 3.72456C15.6348 3.48049 16.0305 3.48049 16.2746 3.72456C16.5187 3.96864 16.5187 4.36437 16.2746 4.60845L10.8835 9.99984L16.2746 15.3913C16.4965 15.6131 16.5167 15.9603 16.3351 16.205L16.2746 16.2751C16.0528 16.497 15.7055 16.5172 15.4608 16.3356L15.3908 16.2751L9.99935 10.884L4.60796 16.2751C4.36388 16.5192 3.96815 16.5192 3.72407 16.2751C3.48 16.031 3.48 15.6353 3.72407 15.3913L9.11518 9.99984L3.72407 4.60845C3.50218 4.38655 3.48202 4.03934 3.66356 3.79466Z" fill="white"/>
</svg>
