<svg width="20" height="20" viewBox="0 0 20 20" fill="none" xmlns="http://www.w3.org/2000/svg">
<path d="M1.63266 7.61906C1.63266 4.31286 4.31286 1.63266 7.61906 1.63266C10.9253 1.63266 13.6055 4.31286 13.6055 7.61906C13.6055 10.9253 10.9253 13.6055 7.61906 13.6055C4.31286 13.6055 1.63266 10.9253 1.63266 7.61906ZM7.61906 0C3.41117 0 0 3.41117 0 7.61906C0 11.827 3.41117 15.2381 7.61906 15.2381C9.42891 15.2381 11.0914 14.607 12.3985 13.553L18.7755 20L19.1837 19.5918L20 18.7755C19.6812 18.4567 13.553 12.3985 13.553 12.3985C14.607 11.0914 15.2381 9.42891 15.2381 7.61906C15.2381 3.41117 11.827 0 7.61906 0Z" fill="white"/>
</svg>
